<svg preserveAspectRatio="none" width="100%" height="100%" overflow="visible" style="display: block;" viewBox="0 0 16.6667 16.6667" fill="none" xmlns="http://www.w3.org/2000/svg">
<g id="help">
<path fill-rule="evenodd" clip-rule="evenodd" d="M8.33333 15.4167C12.2454 15.4167 15.4167 12.2454 15.4167 8.33333C15.4167 4.42132 12.2454 1.25 8.33333 1.25C4.42132 1.25 1.25 4.42132 1.25 8.33333C1.25 12.2454 4.42132 15.4167 8.33333 15.4167ZM8.33333 16.6667C12.9357 16.6667 16.6667 12.9357 16.6667 8.33333C16.6667 3.73096 12.9357 0 8.33333 0C3.73096 0 0 3.73096 0 8.33333C0 12.9357 3.73096 16.6667 8.33333 16.6667Z" fill="var(--fill-0, #040E23)" fill-opacity="0.64"/>
<path d="M8.05943 9.74905C7.67623 9.74905 7.35744 9.43587 7.40419 9.05554C7.4276 8.86515 7.46131 8.69859 7.50533 8.55587C7.59923 8.26034 7.73181 8.02281 7.90305 7.84328C8.0743 7.66098 8.28283 7.49388 8.52865 7.34197C8.69713 7.23702 8.84766 7.1224 8.98023 6.99811C9.11557 6.87105 9.22191 6.73019 9.29924 6.57552C9.37658 6.41809 9.41525 6.2427 9.41525 6.04936C9.41525 5.83116 9.36415 5.64197 9.26196 5.48177C9.15976 5.32158 9.02166 5.19729 8.84766 5.1089C8.67641 5.02052 8.48445 4.97633 8.27178 4.97633C8.07568 4.97633 7.88924 5.01914 7.71248 5.10476C7.53847 5.18762 7.39347 5.31467 7.27746 5.48591C7.06539 5.80144 6.78899 6.12808 6.40882 6.12808H6.37872C5.95856 6.12808 5.60472 5.77425 5.72736 5.37238C5.7904 5.1658 5.87899 4.97854 5.99313 4.81061C6.23619 4.45707 6.55658 4.19192 6.95431 4.01515C7.3548 3.83838 7.79672 3.75 8.28007 3.75C8.80761 3.75 9.27162 3.84253 9.67211 4.02758C10.0754 4.21263 10.3888 4.4764 10.6126 4.81889C10.8391 5.15862 10.9523 5.56187 10.9523 6.02865C10.9523 6.34351 10.9012 6.62524 10.799 6.87382C10.6996 7.1224 10.5573 7.34336 10.3723 7.53669C10.1872 7.73003 9.96764 7.90266 9.71354 8.05457C9.48982 8.19267 9.30615 8.33629 9.16252 8.48544C9.02166 8.63459 8.91671 8.80997 8.84766 9.0116C8.84113 9.03119 8.8349 9.05124 8.82899 9.07174C8.72391 9.43605 8.43859 9.74905 8.05943 9.74905Z" fill="var(--fill-0, #040E23)" fill-opacity="0.64"/>
<path d="M7.44337 12.3828C7.6229 12.5596 7.83695 12.648 8.08553 12.648C8.25125 12.648 8.40178 12.6079 8.53712 12.5278C8.67522 12.445 8.7857 12.3345 8.86856 12.1964C8.95418 12.0583 8.99699 11.905 8.99699 11.7365C8.99699 11.4879 8.90584 11.2753 8.72355 11.0985C8.54402 10.9217 8.33135 10.8333 8.08553 10.8333C7.83695 10.8333 7.6229 10.9217 7.44337 11.0985C7.26384 11.2753 7.17407 11.4879 7.17407 11.7365C7.17407 11.9906 7.26384 12.206 7.44337 12.3828Z" fill="var(--fill-0, #040E23)" fill-opacity="0.64"/>
</g>
</svg>
