<svg xmlns="http://www.w3.org/2000/svg" width="256" height="256" viewBox="0 0 24 24">
  <style>
    @media (prefers-color-scheme: dark) {
      .fg { fill: #ffffff; }
    }
    @media (prefers-color-scheme: light) {
      .fg { fill: #0D0F1C; }
    }
  </style>
  <path class="fg" d="M22.4804 7.47012C21.9322 6.0949 21.1473 4.89616 20.1266 3.87515C19.1054 2.85414 17.9068 2.06431 16.5315 1.50502C15.1556 0.946354 13.6508 0.666708 12.0175 0.666708C10.362 0.666708 8.84158 0.946354 7.4551 1.50502C6.06868 2.06431 4.87014 2.85414 3.86001 3.87515C2.84942 4.89616 2.065 6.0949 1.50628 7.47012C0.94711 8.84597 0.667969 10.361 0.667969 12.0165C0.667969 13.6503 0.94711 15.1597 1.50628 16.5461C2.065 17.9325 2.84942 19.1369 3.86001 20.1572C4.87014 21.1789 6.06868 21.9631 7.4551 22.5112C8.84158 23.0593 10.362 23.3334 12.0175 23.3334C13.3964 23.3334 14.6835 23.137 15.879 22.7467L13.6726 19.0729C13.1484 19.1828 12.5968 19.2388 12.0175 19.2388C10.6633 19.2388 9.45418 18.938 8.39017 18.3358C7.3261 17.7343 6.48779 16.8904 5.87521 15.8047C5.26261 14.7197 4.95626 13.4564 4.95626 12.0165C4.95626 10.5767 5.26261 9.31329 5.87521 8.22765C6.48779 7.14263 7.3261 6.29313 8.39017 5.6804C9.45418 5.06767 10.6633 4.76131 12.0175 4.76131C13.3717 4.76131 14.5753 5.06767 15.6287 5.6804C16.6815 6.29313 17.5093 7.13704 18.1114 8.21149C18.7129 9.28656 19.0142 10.5549 19.0142 12.0165C19.0142 13.4346 18.7129 14.6924 18.1114 15.7886C17.8983 16.1764 17.6555 16.5318 17.3859 16.8581L19.6326 20.6171C19.8011 20.4692 19.9668 20.3176 20.1266 20.1572C21.1473 19.1369 21.9322 17.9325 22.4804 16.5461C23.0284 15.1597 23.3024 13.6503 23.3024 12.0165C23.3024 10.361 23.0284 8.84597 22.4804 7.47012Z"/>
  <path fill="#EF3923" d="M18.561 22.9781L12.0156 12.0801H17.0733L23.5864 22.9781H18.561Z"/>
  <title>Qive</title>
</svg>
